 Full Credits To Feel Free :)

 ######## ######## ######## ##          ######## ########  ######## ######## 
 ##       ##       ##       ##          ##       ##     ## ##       ##       
 ##       ##       ##       ##          ##       ##     ## ##       ##       
 ######   ######   ######   ##          ######   ########  ######   ######   
 ##       ##       ##       ##          ##       ##   ##   ##       ##       
 ##       ##       ##       ##          ##       ##    ##  ##       ##       
 ##       ######## ######## ########    ##       ##     ## ######## ########


 Genre:Drama
 Language:English
 IMDb:http://www.imdb.com/title/tt1528312/
 Source:1080p.BluRay.X264-7SinS.
 Subtitles:Romana

 Format : MPEG-4
 Format profile : Base Media
 Codec ID : isom
 File size : 2.21 GiB
 Duration : 1h 48mn
 Overall bit rate : 2 914 Kbps

 Video
 ID : 1
 Format : AVC
 Format/Info : Advanced Video Codec
 Format profile : High@L4.1
 Format settings, CABAC : Yes
 Format settings, ReFrames : 3 frames
 Format settings, GOP : M=3, N=12
 Codec ID : avc1
 Codec ID/Info : Advanced Video Coding
 Duration : 1h 48mn
 Bit rate mode : Variable
 Bit rate : 2 500 Kbps
 Maximum bit rate : 24.7 Mbps
 Width : 1 280 pixels
 Height : 696 pixels
 Display aspect ratio : 16:9
 Frame rate mode : Constant
 Frame rate : 24.000 fps
 Color space : YUV
 Chroma subsampling : 4:2:0
 Bit depth : 8 bits
 Scan type : Progressive
 Bits/(Pixel*Frame) : 0.117
 Stream size : 1.89 GiB (85%)
 Writing library : x264

 Audio
 ID : 2
 Format : AAC
 Format/Info : Advanced Audio Codec
 Format version : Version 4
 Format profile : LC
 Format settings, SBR : No
 Codec ID : 40
 Duration : 1h 48mn
 Bit rate mode : Variable
 Bit rate : 425 Kbps
 Maximum bit rate : 561 Kbps
 Channel(s) : 6 channels
 Channel positions : Front: L C R, Side: L R, LFE
 Sampling rate : 48.0 KHz
 Stream size : 330 MiB (15%)


 Plot:
 The story of a private security contractor in Iraq who rejected the official 
 explanation of his friend's death and sets out to discover the truth.


 Screen Shots:
  http://leetleech.org/images/15232563532257405511.png
  http://leetleech.org/images/78679494086931450708.png
  http://leetleech.org/images/45495058290013377814.png
  http://leetleech.org/images/38927902580346668479.png
  http://leetleech.org/images/82889455192702753067.png

 
 Full Credits To Feel Free :)

 ######## ######## ######## ##          ######## ########  ######## ######## 
 ##       ##       ##       ##          ##       ##     ## ##       ##       
 ##       ##       ##       ##          ##       ##     ## ##       ##       
 ######   ######   ######   ##          ######   ########  ######   ######   
 ##       ##       ##       ##          ##       ##   ##   ##       ##       
 ##       ##       ##       ##          ##       ##    ##  ##       ##       
 ##       ######## ######## ########    ##       ##     ## ######## ########